<?xml version="1.0" standalone="no"?><!-- Generator: Gravit.io --><svg xmlns="http://www.w3.org/2000/svg" xmlns:xlink="http://www.w3.org/1999/xlink" style="isolation:isolate" viewBox="0 0 528 153" width="528" height="153"><defs><clipPath id="_clipPath_9UBPP7T4YygQvOpZp8p33f4l6sbBNvfj"><rect width="528" height="153"/></clipPath></defs><g clip-path="url(#_clipPath_9UBPP7T4YygQvOpZp8p33f4l6sbBNvfj)"><rect x="0" y="0" width="149" height="60" transform="matrix(1,0,0,1,0,0)" fill="rgb(74,134,232)"/><g transform="matrix(1,0,0,1,12.5,4)"><text transform="matrix(1,0,0,1,39.257,21.377)" style="font-family:'Open Sans';font-weight:400;font-size:20px;font-style:normal;fill:#ffffff;stroke:none;">User</text><text transform="matrix(1,0,0,1,19.789,48.613)" style="font-family:'Open Sans';font-weight:400;font-size:20px;font-style:normal;fill:#ffffff;stroke:none;">interface</text></g><g opacity="0.5"><rect x="0" y="60" width="149" height="34" transform="matrix(1,0,0,1,0,0)" fill="rgb(74,134,232)"/></g><g transform="matrix(1,0,0,1,12.5,64)"><text transform="matrix(1,0,0,1,24.862,21.377)" style="font-family:'Open Sans';font-weight:400;font-size:20px;font-style:normal;fill:#ffffff;stroke:none;">Surveys</text></g><g opacity="0.5"><rect x="189.5" y="60" width="149" height="60" transform="matrix(1,0,0,1,0,0)" fill="rgb(153,0,255)"/></g><g transform="matrix(1,0,0,1,202,64)"><text transform="matrix(1,0,0,1,13.686,21.377)" style="font-family:'Open Sans';font-weight:400;font-size:20px;font-style:normal;fill:#ffffff;stroke:none;">Questions</text><text transform="matrix(1,0,0,1,24.076,48.613)" style="font-family:'Open Sans';font-weight:400;font-size:20px;font-style:normal;fill:#ffffff;stroke:none;">Options</text></g><g opacity="0.5"><rect x="379" y="60" width="149" height="93" transform="matrix(1,0,0,1,0,0)" fill="rgb(255,0,255)"/></g><g transform="matrix(1,0,0,1,391.5,64)"><text transform="matrix(1,0,0,1,17.714,21.377)" style="font-family:'Open Sans';font-weight:400;font-size:20px;font-style:normal;fill:#ffffff;stroke:none;">Concepts</text><text transform="matrix(1,0,0,1,37.216,48.613)" style="font-family:'Open Sans';font-weight:400;font-size:20px;font-style:normal;fill:#ffffff;stroke:none;">Facts</text><text transform="matrix(1,0,0,1,35.771,75.85)" style="font-family:'Open Sans';font-weight:400;font-size:20px;font-style:normal;fill:#ffffff;stroke:none;">Rules</text></g><rect x="189.5" y="0" width="149" height="60" transform="matrix(1,0,0,1,0,0)" fill="rgb(153,0,255)"/><g transform="matrix(1,0,0,1,202,4)"><text transform="matrix(1,0,0,1,6.044,21.377)" style="font-family:'Open Sans';font-weight:400;font-size:20px;font-style:normal;fill:#ffffff;stroke:none;">Explanation</text><text transform="matrix(1,0,0,1,31.132,48.613)" style="font-family:'Open Sans';font-weight:400;font-size:20px;font-style:normal;fill:#ffffff;stroke:none;">facility</text></g><rect x="379" y="0" width="149" height="60" transform="matrix(1,0,0,1,0,0)" fill="rgb(255,0,255)"/><g transform="matrix(1,0,0,1,391.5,4)"><text transform="matrix(1,0,0,1,16.874,21.377)" style="font-family:'Open Sans';font-weight:400;font-size:20px;font-style:normal;fill:#ffffff;stroke:none;">Inference</text><text transform="matrix(1,0,0,1,29.496,48.613)" style="font-family:'Open Sans';font-weight:400;font-size:20px;font-style:normal;fill:#ffffff;stroke:none;">engine</text></g><line x1="149" y1="32" x2="189.5" y2="32" vector-effect="non-scaling-stroke" stroke-width="1" stroke="rgb(0,0,0)" stroke-linejoin="miter" stroke-linecap="square" stroke-miterlimit="3"/><line x1="338.5" y1="32" x2="379" y2="32" vector-effect="non-scaling-stroke" stroke-width="1" stroke="rgb(0,0,0)" stroke-linejoin="miter" stroke-linecap="square" stroke-miterlimit="3"/></g></svg>