<svg xmlns="http://www.w3.org/2000/svg" xmlns:xlink="http://www.w3.org/1999/xlink" width="528" height="153" viewBox="0 0 528 153" style="isolation:isolate"><defs><clipPath id="_clipPath_9UBPP7T4YygQvOpZp8p33f4l6sbBNvfj"><rect width="528" height="153"/></clipPath></defs><g clip-path="url(#_clipPath_9UBPP7T4YygQvOpZp8p33f4l6sbBNvfj)"><rect width="149" height="60" x="0" y="0" fill="#4A86E8" transform="matrix(1,0,0,1,0,0)"/><g><text fill="#fff" stroke="none" font-family="Open Sans" font-size="20" font-style="normal" font-weight="400" transform="matrix(1,0,0,1,12.5,4) matrix(1,0,0,1,39.257,21.377)">User</text><text fill="#fff" stroke="none" font-family="Open Sans" font-size="20" font-style="normal" font-weight="400" transform="matrix(1,0,0,1,12.5,4) matrix(1,0,0,1,19.789,48.613)">interface</text></g><g opacity=".5"><rect width="149" height="34" x="0" y="60" fill="#4A86E8" transform="matrix(1,0,0,1,0,0)"/></g><g><text fill="#fff" stroke="none" font-family="Open Sans" font-size="20" font-style="normal" font-weight="400" transform="matrix(1,0,0,1,12.5,64) matrix(1,0,0,1,24.862,21.377)">Surveys</text></g><g opacity=".5"><rect width="149" height="60" x="189.5" y="60" fill="#90F" transform="matrix(1,0,0,1,0,0)"/></g><g><text fill="#fff" stroke="none" font-family="Open Sans" font-size="20" font-style="normal" font-weight="400" transform="matrix(1,0,0,1,202,64) matrix(1,0,0,1,13.686,21.377)">Questions</text><text fill="#fff" stroke="none" font-family="Open Sans" font-size="20" font-style="normal" font-weight="400" transform="matrix(1,0,0,1,202,64) matrix(1,0,0,1,24.076,48.613)">Options</text></g><g opacity=".5"><rect width="149" height="93" x="379" y="60" fill="#F0F" transform="matrix(1,0,0,1,0,0)"/></g><g><text fill="#fff" stroke="none" font-family="Open Sans" font-size="20" font-style="normal" font-weight="400" transform="matrix(1,0,0,1,391.5,64) matrix(1,0,0,1,17.714,21.377)">Concepts</text><text fill="#fff" stroke="none" font-family="Open Sans" font-size="20" font-style="normal" font-weight="400" transform="matrix(1,0,0,1,391.5,64) matrix(1,0,0,1,37.216,48.613)">Facts</text><text fill="#fff" stroke="none" font-family="Open Sans" font-size="20" font-style="normal" font-weight="400" transform="matrix(1,0,0,1,391.5,64) matrix(1,0,0,1,35.771,75.85)">Rules</text></g><rect width="149" height="60" x="189.5" y="0" fill="#90F" transform="matrix(1,0,0,1,0,0)"/><g><text fill="#fff" stroke="none" font-family="Open Sans" font-size="20" font-style="normal" font-weight="400" transform="matrix(1,0,0,1,202,4) matrix(1,0,0,1,6.044,21.377)">Explanation</text><text fill="#fff" stroke="none" font-family="Open Sans" font-size="20" font-style="normal" font-weight="400" transform="matrix(1,0,0,1,202,4) matrix(1,0,0,1,31.132,48.613)">facility</text></g><rect width="149" height="60" x="379" y="0" fill="#F0F" transform="matrix(1,0,0,1,0,0)"/><g><text fill="#fff" stroke="none" font-family="Open Sans" font-size="20" font-style="normal" font-weight="400" transform="matrix(1,0,0,1,391.5,4) matrix(1,0,0,1,16.874,21.377)">Inference</text><text fill="#fff" stroke="none" font-family="Open Sans" font-size="20" font-style="normal" font-weight="400" transform="matrix(1,0,0,1,391.5,4) matrix(1,0,0,1,29.496,48.613)">engine</text></g><line x1="149" x2="189.5" y1="32" y2="32" stroke="#000" stroke-linecap="square" stroke-linejoin="miter" stroke-miterlimit="3" stroke-width="1" vector-effect="non-scaling-stroke"/><line x1="338.5" x2="379" y1="32" y2="32" stroke="#000" stroke-linecap="square" stroke-linejoin="miter" stroke-miterlimit="3" stroke-width="1" vector-effect="non-scaling-stroke"/></g></svg>